<svg width="472" height="543" xmlns="http://www.w3.org/2000/svg" xmlns:xlink="http://www.w3.org/1999/xlink" overflow="hidden"><defs><clipPath id="clip0"><rect x="1349" y="781" width="472" height="543"/></clipPath><radialGradient cx="720437" cy="622069" r="951840" fx="720436" fy="622069" gradientUnits="userSpaceOnUse" spreadMethod="pad" id="fill1" gradientTransform="matrix(2.20983e-20 0.000360892 -0.000360892 2.20983e-20 1809.5 792.5)"><stop offset="0" stop-color="#4472C4"/><stop offset="0.57" stop-color="#002060"/><stop offset="1" stop-color="#454545"/></radialGradient></defs><g clip-path="url(#clip0)" transform="translate(-1349 -781)"><path d="M1585 792.5 1809.5 929.696 1809.5 1175.3 1585 1312.5 1360.5 1175.3 1360.5 929.696Z" stroke="#2F528F" stroke-width="22.9167" stroke-linecap="round" stroke-linejoin="round" stroke-miterlimit="10" fill="url(#fill1)" fill-rule="evenodd"/><path d="M1519.5 910.5 1519.5 1156.85" stroke="#1BA6CF" stroke-width="22.9167" stroke-miterlimit="8" fill="none" fill-rule="evenodd"/><path d="M1691.9 912.909C1661.9 1063.02 1593.98 1161.62 1522.8 1158.41" stroke="#1BA6CF" stroke-width="22.9167" stroke-miterlimit="8" fill="none" fill-rule="evenodd"/><path d="M1482.5 1153.42 1512.42 1153.42 1512.42 1123.5 1526.58 1123.5 1526.58 1153.42 1556.5 1153.42 1556.5 1166.58 1526.58 1166.58 1526.58 1196.5 1512.42 1196.5 1512.42 1166.58 1482.5 1166.58Z" stroke="#FFFFFF" stroke-width="9.16667" stroke-miterlimit="8" fill="#FFFFFF" fill-rule="evenodd"/><rect x="1624.85" y="1154.2" width="46.2986" height="11.5935" stroke="#FFFFFF" stroke-width="9.16667" stroke-miterlimit="8" fill="#FFFFFF"/></g></svg>