<svg width="2730" height="818" xmlns="http://www.w3.org/2000/svg" xmlns:xlink="http://www.w3.org/1999/xlink" overflow="hidden"><defs><clipPath id="clip0"><rect x="0" y="2948" width="2730" height="818"/></clipPath></defs><g clip-path="url(#clip0)" transform="matrix(1 0 0 1 0 -2948)"><path d="M0 3765 2729 3765" stroke="#E0E0DC" stroke-width="2.29167" stroke-linejoin="round" stroke-miterlimit="10" fill="none" fill-rule="evenodd"/><path d="M0 3765 2729 3765" stroke="#E0E0DC" stroke-width="2.29167" stroke-linejoin="round" stroke-miterlimit="10" fill="none" fill-rule="evenodd"/><text fill="#005A8E" font-family="Calibri,Calibri_MSFontService,sans-serif" font-weight="700" font-size="30" transform="matrix(1 0 0 1 115.5 2986)">RISK<tspan font-size="30" x="82.5" y="0">-</tspan><tspan font-size="30" x="98.5417" y="0">GATED PROGRAMME </tspan><tspan font-size="30" x="480.104" y="0">—</tspan><tspan font-size="30" x="527.656" y="0">FOUR BINARY GO/NO</tspan>-<tspan font-size="30" x="929.844" y="0">GO GATES</tspan></text><path d="M116 3012 1092 3012" stroke="#005A8E" stroke-width="2.29167" stroke-linejoin="round" stroke-miterlimit="10" fill="none" fill-rule="evenodd"/><rect x="142" y="3194" width="2445" height="13.9998" stroke="#E0E0DC" stroke-width="2.29167" stroke-linejoin="round" stroke-miterlimit="10" fill="#F8F8F6"/><rect x="142.5" y="3194.5" width="611" height="14" stroke="#005A8E" stroke-width="4.58333" stroke-linejoin="round" stroke-miterlimit="10" fill="#005A8E"/><path d="M86.5001 3201C86.5001 3168.14 111.572 3141.5 142.5 3141.5 173.428 3141.5 198.5 3168.14 198.5 3201 198.5 3233.86 173.428 3260.5 142.5 3260.5 111.572 3260.5 86.5001 3233.86 86.5001 3201Z" stroke="#BDD6E8" stroke-width="3.4375" stroke-linejoin="round" stroke-miterlimit="10" fill="#E8F2F8" fill-rule="evenodd"/><path d="M109.5 3201.5C109.5 3182.17 124.275 3166.5 142.5 3166.5 160.726 3166.5 175.5 3182.17 175.5 3201.5 175.5 3220.83 160.726 3236.5 142.5 3236.5 124.275 3236.5 109.5 3220.83 109.5 3201.5Z" stroke="#005A8E" stroke-width="4.58333" stroke-linejoin="round" stroke-miterlimit="10" fill="#005A8E" fill-rule="evenodd"/><text fill="#005A8E" font-family="Courier New,Courier New_MSFontService,sans-serif" font-weight="700" font-size="32" transform="matrix(1 0 0 1 325.325 3174)">Jan<tspan font-size="32" x="58.4375" y="0">–</tspan><tspan font-size="32" x="77.9167" y="0">Jun 2026</tspan><tspan font-family="Cambria,Cambria_MSFontService,sans-serif" font-size="44" x="-226.611" y="-72">Proof of Concept</tspan></text><path d="M142.5 3236.5 142.501 3299.5" stroke="#005A8E" stroke-width="3.4375" stroke-linejoin="round" stroke-miterlimit="10" fill="none" fill-rule="evenodd"/><path d="M794.5 3201.5C794.5 3182.17 809.274 3166.5 827.5 3166.5 845.725 3166.5 860.5 3182.17 860.5 3201.5 860.5 3220.83 845.725 3236.5 827.5 3236.5 809.274 3236.5 794.5 3220.83 794.5 3201.5Z" stroke="#C8C8C4" stroke-width="4.58333" stroke-linejoin="round" stroke-miterlimit="10" fill="#C8C8C4" fill-rule="evenodd"/><text fill="#888884" font-family="Courier New,Courier New_MSFontService,sans-serif" font-weight="400" font-size="32" transform="matrix(1 0 0 1 973.709 3171)">Jul<tspan font-size="32" x="58.4375" y="0">–</tspan><tspan font-size="32" x="77.9166" y="0">Dec 2026</tspan><tspan fill="#1A1A18" font-family="Cambria,Cambria_MSFontService,sans-serif" font-weight="700" font-size="44" x="-247.099" y="-66">Prototype</tspan></text><path d="M827.5 3236.5 827.5 3299.5" stroke="#E0E0DC" stroke-width="3.4375" stroke-linejoin="round" stroke-miterlimit="10" fill="none" fill-rule="evenodd"/><path d="M1429.5 3201.5C1429.5 3182.17 1444.27 3166.5 1462.5 3166.5 1480.73 3166.5 1495.5 3182.17 1495.5 3201.5 1495.5 3220.83 1480.73 3236.5 1462.5 3236.5 1444.27 3236.5 1429.5 3220.83 1429.5 3201.5Z" stroke="#C8C8C4" stroke-width="4.58333" stroke-linejoin="round" stroke-miterlimit="10" fill="#C8C8C4" fill-rule="evenodd"/><text fill="#888884" font-family="Courier New,Courier New_MSFontService,sans-serif" font-weight="400" font-size="32" transform="matrix(1 0 0 1 1670.9 3175)">2027<tspan fill="#1A1A18" font-family="Cambria,Cambria_MSFontService,sans-serif" font-weight="700" font-size="44" x="-360.651" y="-70">Industrial Pilot</tspan></text><path d="M1462.5 3236.5 1462.5 3299.5" stroke="#E0E0DC" stroke-width="3.4375" stroke-linejoin="round" stroke-miterlimit="10" fill="none" fill-rule="evenodd"/><path d="M2016.5 3201.5C2016.5 3182.17 2031.27 3166.5 2049.5 3166.5 2067.73 3166.5 2082.5 3182.17 2082.5 3201.5 2082.5 3220.83 2067.73 3236.5 2049.5 3236.5 2031.27 3236.5 2016.5 3220.83 2016.5 3201.5Z" stroke="#C8C8C4" stroke-width="4.58333" stroke-linejoin="round" stroke-miterlimit="10" fill="#C8C8C4" fill-rule="evenodd"/><text fill="#888884" font-family="Courier New,Courier New_MSFontService,sans-serif" font-weight="400" font-size="32" transform="matrix(1 0 0 1 2237.19 3175)">2028<tspan font-size="32" x="77.9168" y="0">–</tspan><tspan font-size="32" x="97.3958" y="0">2030</tspan><tspan fill="#1A1A18" font-family="Cambria,Cambria_MSFontService,sans-serif" font-weight="700" font-size="44" x="-364.991" y="-70">Commercial Scale</tspan></text><path d="M2049.5 3236.5 2049.5 3299.5" stroke="#E0E0DC" stroke-width="3.4375" stroke-linejoin="round" stroke-miterlimit="10" fill="none" fill-rule="evenodd"/><text fill="#005A8E" font-family="Calibri,Calibri_MSFontService,sans-serif" font-style="italic" font-weight="700" font-size="30" transform="matrix(1 0 0 1 145.2 3288)">↑ We are here</text><rect x="116" y="3313" width="617" height="413" stroke="#BDD6E8" stroke-width="2.29167" stroke-linejoin="round" stroke-miterlimit="10" fill="#E8F2F8"/><rect x="116.5" y="3313.5" width="617" height="17.0002" stroke="#005A8E" stroke-width="4.58333" stroke-linejoin="round" stroke-miterlimit="10" fill="#005A8E"/><rect x="149.5" y="3348.5" width="231" height="67" stroke="#005A8E" stroke-width="4.58333" stroke-linejoin="round" stroke-miterlimit="10" fill="#005A8E"/><text fill="#FFFFFF" font-family="Calibri,Calibri_MSFontService,sans-serif" font-weight="700" font-size="34" transform="matrix(1 0 0 1 201.838 3393)">TRL 3→5</text><path d="M149.5 3466C149.5 3457.44 155.992 3450.5 164 3450.5 172.008 3450.5 178.5 3457.44 178.5 3466 178.5 3474.56 172.008 3481.5 164 3481.5 155.992 3481.5 149.5 3474.56 149.5 3466Z" stroke="#007A6A" stroke-width="3.4375" stroke-linejoin="round" stroke-miterlimit="10" fill="#007A6A" fill-rule="evenodd"/><text fill="#FFFFFF" font-family="Segoe UI Symbol,Segoe UI Symbol_MSFontService,sans-serif" font-weight="700" font-size="25" transform="matrix(1 0 0 1 155.547 3475)">✓<tspan fill="#4A4A48" font-family="Calibri,Calibri_MSFontService,sans-serif" font-weight="400" font-size="34" x="32.5532" y="3">MK1/2: Hydraulic</tspan><tspan fill="#4A4A48" font-family="Calibri,Calibri_MSFontService,sans-serif" font-weight="400" font-size="34" x="276.616" y="3">-</tspan><tspan fill="#4A4A48" font-family="Calibri,Calibri_MSFontService,sans-serif" font-weight="400" font-size="34" x="294.949" y="3">electric  tests</tspan></text><path d="M149.5 3532.5C149.5 3523.66 155.992 3516.5 164 3516.5 172.008 3516.5 178.5 3523.66 178.5 3532.5 178.5 3541.34 172.008 3548.5 164 3548.5 155.992 3548.5 149.5 3541.34 149.5 3532.5Z" stroke="#1A7AB4" stroke-width="3.4375" stroke-linejoin="round" stroke-miterlimit="10" fill="#E8F2F8" fill-rule="evenodd"/><text fill="#4A4A48" font-family="Calibri,Calibri_MSFontService,sans-serif" font-weight="400" font-size="34" transform="matrix(1 0 0 1 188.1 3613)">PoC: 3 go/no<tspan font-size="34" x="181.042" y="0">-</tspan>go criteria validated</text><path d="M149.5 3602.5C149.5 3593.66 155.992 3586.5 164 3586.5 172.008 3586.5 178.5 3593.66 178.5 3602.5 178.5 3611.34 172.008 3618.5 164 3618.5 155.992 3618.5 149.5 3611.34 149.5 3602.5Z" stroke="#1A7AB4" stroke-width="3.4375" stroke-linejoin="round" stroke-miterlimit="10" fill="#E8F2F8" fill-rule="evenodd"/><text fill="#4A4A48" font-family="Calibri,Calibri_MSFontService,sans-serif" font-weight="400" font-size="34" transform="matrix(1 0 0 1 188.1 3544)">Patent filings (3 applications)</text><path d="M149.5 3672.5C149.5 3663.66 155.992 3656.5 164 3656.5 172.008 3656.5 178.5 3663.66 178.5 3672.5 178.5 3681.34 172.008 3688.5 164 3688.5 155.992 3688.5 149.5 3681.34 149.5 3672.5Z" stroke="#1A7AB4" stroke-width="3.4375" stroke-linejoin="round" stroke-miterlimit="10" fill="#E8F2F8" fill-rule="evenodd"/><text fill="#4A4A48" font-family="Calibri,Calibri_MSFontService,sans-serif" font-weight="400" font-size="34" transform="matrix(1 0 0 1 188.1 3684)">Company incorporation</text><rect x="743" y="3313" width="617" height="413" stroke="#E0E0DC" stroke-width="2.29167" stroke-linejoin="round" stroke-miterlimit="10" fill="#F8F8F6"/><rect x="743.5" y="3313.5" width="617" height="17.0002" stroke="#C8C8C4" stroke-width="4.58333" stroke-linejoin="round" stroke-miterlimit="10" fill="#C8C8C4"/><rect x="776.5" y="3348.5" width="231" height="67" stroke="#C8C8C4" stroke-width="4.58333" stroke-linejoin="round" stroke-miterlimit="10" fill="#C8C8C4"/><text fill="#FFFFFF" font-family="Calibri,Calibri_MSFontService,sans-serif" font-weight="700" font-size="34" transform="matrix(1 0 0 1 828.838 3393)">TRL 5→6</text><path d="M776.5 3466C776.5 3457.44 782.992 3450.5 791 3450.5 799.008 3450.5 805.5 3457.44 805.5 3466 805.5 3474.56 799.008 3481.5 791 3481.5 782.992 3481.5 776.5 3474.56 776.5 3466Z" stroke="#C8C8C4" stroke-width="3.4375" stroke-linejoin="round" stroke-miterlimit="10" fill="#F8F8F6" fill-rule="evenodd"/><text fill="#888884" font-family="Calibri,Calibri_MSFontService,sans-serif" font-weight="400" font-size="34" transform="matrix(1 0 0 1 815.1 3478)">2<tspan font-size="34" x="17.1875" y="0">–</tspan><tspan font-size="34" x="34.375" y="0">3 functional prototypes</tspan></text><path d="M776.5 3536C776.5 3527.44 782.992 3520.5 791 3520.5 799.008 3520.5 805.5 3527.44 805.5 3536 805.5 3544.56 799.008 3551.5 791 3551.5 782.992 3551.5 776.5 3544.56 776.5 3536Z" stroke="#C8C8C4" stroke-width="3.4375" stroke-linejoin="round" stroke-miterlimit="10" fill="#F8F8F6" fill-rule="evenodd"/><text fill="#888884" font-family="Calibri,Calibri_MSFontService,sans-serif" font-weight="400" font-size="34" transform="matrix(1 0 0 1 815.1 3548)">250<tspan font-size="34" x="51.5625" y="0">–</tspan>500 cycle endurance testing</text><path d="M776.5 3606C776.5 3597.44 782.992 3590.5 791 3590.5 799.008 3590.5 805.5 3597.44 805.5 3606 805.5 3614.56 799.008 3621.5 791 3621.5 782.992 3621.5 776.5 3614.56 776.5 3606Z" stroke="#C8C8C4" stroke-width="3.4375" stroke-linejoin="round" stroke-miterlimit="10" fill="#F8F8F6" fill-rule="evenodd"/><text fill="#888884" font-family="Calibri,Calibri_MSFontService,sans-serif" font-weight="400" font-size="34" transform="matrix(1 0 0 1 815.1 3618)">Independent external lab validation</text><path d="M776.5 3676C776.5 3667.44 782.992 3660.5 791 3660.5 799.008 3660.5 805.5 3667.44 805.5 3676 805.5 3684.56 799.008 3691.5 791 3691.5 782.992 3691.5 776.5 3684.56 776.5 3676Z" stroke="#C8C8C4" stroke-width="3.4375" stroke-linejoin="round" stroke-miterlimit="10" fill="#F8F8F6" fill-rule="evenodd"/><text fill="#888884" font-family="Calibri,Calibri_MSFontService,sans-serif" font-weight="400" font-size="34" transform="matrix(1 0 0 1 815.1 3688)">First pilot partner signed</text><rect x="1370" y="3313" width="617" height="413" stroke="#E0E0DC" stroke-width="2.29167" stroke-linejoin="round" stroke-miterlimit="10" fill="#F8F8F6"/><rect x="1370.5" y="3313.5" width="617" height="17.0002" stroke="#C8C8C4" stroke-width="4.58333" stroke-linejoin="round" stroke-miterlimit="10" fill="#C8C8C4"/><rect x="1403.5" y="3348.5" width="231" height="67" stroke="#C8C8C4" stroke-width="4.58333" stroke-linejoin="round" stroke-miterlimit="10" fill="#C8C8C4"/><text fill="#FFFFFF" font-family="Calibri,Calibri_MSFontService,sans-serif" font-weight="700" font-size="34" transform="matrix(1 0 0 1 1455.84 3393)">TRL 6→7</text><path d="M1403.5 3466C1403.5 3457.44 1409.99 3450.5 1418 3450.5 1426.01 3450.5 1432.5 3457.44 1432.5 3466 1432.5 3474.56 1426.01 3481.5 1418 3481.5 1409.99 3481.5 1403.5 3474.56 1403.5 3466Z" stroke="#C8C8C4" stroke-width="3.4375" stroke-linejoin="round" stroke-miterlimit="10" fill="#F8F8F6" fill-rule="evenodd"/><text fill="#888884" font-family="Calibri,Calibri_MSFontService,sans-serif" font-weight="400" font-size="34" transform="matrix(1 0 0 1 1442.1 3478)">2<tspan font-size="34" x="17.1875" y="0">–</tspan><tspan font-size="34" x="34.375" y="0">3 co</tspan><tspan font-size="34" x="92.2395" y="0">-</tspan><tspan font-size="34" x="102.552" y="0">development pilots</tspan></text><path d="M1403.5 3536C1403.5 3527.44 1409.99 3520.5 1418 3520.5 1426.01 3520.5 1432.5 3527.44 1432.5 3536 1432.5 3544.56 1426.01 3551.5 1418 3551.5 1409.99 3551.5 1403.5 3544.56 1403.5 3536Z" stroke="#C8C8C4" stroke-width="3.4375" stroke-linejoin="round" stroke-miterlimit="10" fill="#F8F8F6" fill-rule="evenodd"/><text fill="#888884" font-family="Calibri,Calibri_MSFontService,sans-serif" font-weight="400" font-size="34" transform="matrix(1 0 0 1 1442.1 3548)">Independent performance data</text><path d="M1403.5 3606C1403.5 3597.44 1409.99 3590.5 1418 3590.5 1426.01 3590.5 1432.5 3597.44 1432.5 3606 1432.5 3614.56 1426.01 3621.5 1418 3621.5 1409.99 3621.5 1403.5 3614.56 1403.5 3606Z" stroke="#C8C8C4" stroke-width="3.4375" stroke-linejoin="round" stroke-miterlimit="10" fill="#F8F8F6" fill-rule="evenodd"/><text fill="#888884" font-family="Calibri,Calibri_MSFontService,sans-serif" font-weight="400" font-size="34" transform="matrix(1 0 0 1 1442.1 3618)">Supply<tspan font-size="34" x="94.5313" y="0">-</tspan><tspan font-size="34" x="104.844" y="0">chain qualification</tspan></text><path d="M1403.5 3676C1403.5 3667.44 1409.99 3660.5 1418 3660.5 1426.01 3660.5 1432.5 3667.44 1432.5 3676 1432.5 3684.56 1426.01 3691.5 1418 3691.5 1409.99 3691.5 1403.5 3684.56 1403.5 3676Z" stroke="#C8C8C4" stroke-width="3.4375" stroke-linejoin="round" stroke-miterlimit="10" fill="#F8F8F6" fill-rule="evenodd"/><text fill="#888884" font-family="Calibri,Calibri_MSFontService,sans-serif" font-weight="400" font-size="34" transform="matrix(1 0 0 1 1442.1 3688)">Series A fundraise</text><rect x="1997" y="3313" width="617" height="413" stroke="#E0E0DC" stroke-width="2.29167" stroke-linejoin="round" stroke-miterlimit="10" fill="#F8F8F6"/><rect x="1997.5" y="3313.5" width="617" height="17.0002" stroke="#C8C8C4" stroke-width="4.58333" stroke-linejoin="round" stroke-miterlimit="10" fill="#C8C8C4"/><rect x="2030.5" y="3348.5" width="231" height="67" stroke="#C8C8C4" stroke-width="4.58333" stroke-linejoin="round" stroke-miterlimit="10" fill="#C8C8C4"/><text fill="#FFFFFF" font-family="Calibri,Calibri_MSFontService,sans-serif" font-weight="700" font-size="34" transform="matrix(1 0 0 1 2082.84 3393)">TRL 7→9</text><path d="M2030.5 3466C2030.5 3457.44 2036.99 3450.5 2045 3450.5 2053.01 3450.5 2059.5 3457.44 2059.5 3466 2059.5 3474.56 2053.01 3481.5 2045 3481.5 2036.99 3481.5 2030.5 3474.56 2030.5 3466Z" stroke="#C8C8C4" stroke-width="3.4375" stroke-linejoin="round" stroke-miterlimit="10" fill="#F8F8F6" fill-rule="evenodd"/><text fill="#888884" font-family="Calibri,Calibri_MSFontService,sans-serif" font-weight="400" font-size="34" transform="matrix(1 0 0 1 2069.1 3478)">15<tspan font-size="34" x="34.375" y="0">–</tspan><tspan font-size="34" x="51.5625" y="0">30 systems/yr, 5 countries</tspan></text><path d="M2030.5 3536C2030.5 3527.44 2036.99 3520.5 2045 3520.5 2053.01 3520.5 2059.5 3527.44 2059.5 3536 2059.5 3544.56 2053.01 3551.5 2045 3551.5 2036.99 3551.5 2030.5 3544.56 2030.5 3536Z" stroke="#C8C8C4" stroke-width="3.4375" stroke-linejoin="round" stroke-miterlimit="10" fill="#F8F8F6" fill-rule="evenodd"/><text fill="#888884" font-family="Calibri,Calibri_MSFontService,sans-serif" font-weight="400" font-size="34" transform="matrix(1 0 0 1 2069.1 3548)">EPC channel partnerships</text><path d="M2030.5 3606C2030.5 3597.44 2036.99 3590.5 2045 3590.5 2053.01 3590.5 2059.5 3597.44 2059.5 3606 2059.5 3614.56 2053.01 3621.5 2045 3621.5 2036.99 3621.5 2030.5 3614.56 2030.5 3606Z" stroke="#C8C8C4" stroke-width="3.4375" stroke-linejoin="round" stroke-miterlimit="10" fill="#F8F8F6" fill-rule="evenodd"/><text fill="#888884" font-family="Calibri,Calibri_MSFontService,sans-serif" font-weight="400" font-size="34" transform="matrix(1 0 0 1 2069.1 3618)">LTSA recurring revenue</text><path d="M2030.5 3676C2030.5 3667.44 2036.99 3660.5 2045 3660.5 2053.01 3660.5 2059.5 3667.44 2059.5 3676 2059.5 3684.56 2053.01 3691.5 2045 3691.5 2036.99 3691.5 2030.5 3684.56 2030.5 3676Z" stroke="#C8C8C4" stroke-width="3.4375" stroke-linejoin="round" stroke-miterlimit="10" fill="#F8F8F6" fill-rule="evenodd"/><text fill="#888884" font-family="Calibri,Calibri_MSFontService,sans-serif" font-weight="400" font-size="34" transform="matrix(1 0 0 1 2069.1 3688)">Energy<tspan font-size="34" x="95.677" y="0">-</tspan><tspan font-size="34" x="105.99" y="0">as</tspan><tspan font-size="34" x="135.781" y="0">-</tspan>a<tspan font-size="34" x="162.708" y="0">-</tspan>Service model</text><path d="M149.5 3533C149.5 3524.44 155.992 3517.5 164 3517.5 172.008 3517.5 178.5 3524.44 178.5 3533 178.5 3541.56 172.008 3548.5 164 3548.5 155.992 3548.5 149.5 3541.56 149.5 3533Z" stroke="#007A6A" stroke-width="3.4375" stroke-linejoin="round" stroke-miterlimit="10" fill="#007A6A" fill-rule="evenodd"/><text fill="#FFFFFF" font-family="Calibri,Calibri_MSFontService,sans-serif" font-weight="700" font-size="25" transform="matrix(1 0 0 1 159.901 3541)">-</text><path d="M149.5 3602.5C149.5 3593.66 155.992 3586.5 164 3586.5 172.008 3586.5 178.5 3593.66 178.5 3602.5 178.5 3611.34 172.008 3618.5 164 3618.5 155.992 3618.5 149.5 3611.34 149.5 3602.5Z" stroke="#1A7AB4" stroke-width="3.4375" stroke-linejoin="round" stroke-miterlimit="10" fill="#E8F2F8" fill-rule="evenodd"/><path d="M149.5 3603C149.5 3594.44 155.992 3587.5 164 3587.5 172.008 3587.5 178.5 3594.44 178.5 3603 178.5 3611.56 172.008 3618.5 164 3618.5 155.992 3618.5 149.5 3611.56 149.5 3603Z" stroke="#007A6A" stroke-width="3.4375" stroke-linejoin="round" stroke-miterlimit="10" fill="#007A6A" fill-rule="evenodd"/><text fill="#FFFFFF" font-family="Calibri,Calibri_MSFontService,sans-serif" font-weight="700" font-size="25" transform="matrix(1 0 0 1 159.901 3611)">-</text></g></svg>